<svg xmlns="http://www.w3.org/2000/svg" xmlns:xlink="http://www.w3.org/1999/xlink" viewBox="0,0,256,256" width="50px" height="50px" fill-rule="nonzero"><g fill="#ffffff" fill-rule="nonzero" stroke="none" stroke-width="1" stroke-linecap="butt" stroke-linejoin="miter" stroke-miterlimit="10" stroke-dasharray="" stroke-dashoffset="0" font-family="none" font-weight="none" font-size="none" text-anchor="none" style="mix-blend-mode: normal"><path d="M0,256v-256h256v256z" id="bgRectangle"></path></g><g fill="#000000" fill-rule="nonzero" stroke="none" stroke-width="1" stroke-linecap="butt" stroke-linejoin="miter" stroke-miterlimit="10" stroke-dasharray="" stroke-dashoffset="0" font-family="none" font-weight="none" font-size="none" text-anchor="none" style="mix-blend-mode: normal"><g transform="scale(5.12,5.12)"><path d="M49.729,11h-0.85c-1.051,0 -2.041,0.49 -2.68,1.324l-8.7,11.377l-8.7,-11.377c-0.637,-0.834 -1.628,-1.324 -2.678,-1.324h-0.85l10.971,14.346l-11.206,14.654h0.85c1.051,0 2.041,-0.49 2.679,-1.324l8.935,-11.684l8.935,11.684c0.638,0.834 1.628,1.324 2.679,1.324h0.85l-11.206,-14.654zM21.289,34.242c-2.554,3.881 -7.582,5.87 -12.389,4.116c-4.229,-1.543 -6.9,-5.747 -6.9,-10.249v-1.109h12v0h11v-4.134c0,-6.505 -4.818,-12.2 -11.295,-12.809c-7.432,-0.699 -13.705,5.153 -13.705,12.443v5.573c0,5.371 3.215,10.364 8.269,12.183c6.603,2.376 13.548,-1.17 15.896,-7.256v0h-0.638c-0.911,0 -1.738,0.481 -2.238,1.242zM2,22.5c0,-5.79 4.71,-10.5 10.5,-10.5c5.79,0 10.5,4.71 10.5,10.5v2.5h-21z"></path></g></g></svg>